<?xml version="1.0" standalone="no"?>
<!DOCTYPE svg PUBLIC "-//W3C//DTD SVG 20010904//EN"
 "http://www.w3.org/TR/2001/REC-SVG-20010904/DTD/svg10.dtd">
<svg version="1.0" xmlns="http://www.w3.org/2000/svg"
 width="560.000000pt" height="648.000000pt" viewBox="0 0 560.000000 648.000000"
 preserveAspectRatio="xMidYMid meet">

<g transform="translate(0.000000,648.000000) scale(0.100000,-0.100000)"
fill="#000000" stroke="none">
<path d="M3411 6430 c-25 -5 -79 -21 -120 -34 -96 -32 -143 -42 -256 -56 -91
-11 -223 -33 -304 -51 -93 -21 -269 -106 -338 -163 -37 -31 -88 -63 -113 -72
-25 -9 -57 -21 -72 -26 -15 -6 -53 -30 -85 -55 -32 -25 -83 -58 -115 -74 -38
-19 -77 -52 -120 -100 -42 -48 -102 -97 -183 -152 -174 -118 -247 -195 -319
-337 -32 -63 -73 -159 -92 -213 -18 -53 -41 -109 -52 -125 -34 -48 -82 -150
-112 -242 -38 -112 -48 -230 -36 -414 7 -118 6 -146 -8 -191 -11 -36 -16 -88
-16 -169 l0 -117 -39 -57 c-82 -122 -86 -134 -86 -272 0 -85 6 -146 18 -190
21 -80 109 -257 153 -309 42 -48 247 -195 311 -222 26 -11 58 -25 70 -31 27
-14 288 -516 331 -640 17 -47 45 -143 63 -214 30 -117 33 -143 33 -279 1 -217
-26 -297 -143 -419 -127 -131 -307 -255 -901 -621 -392 -241 -599 -376 -764
-499 l-110 -81 1397 -3 c768 -1 2026 -1 2794 0 l1397 3 -249 209 c-138 115
-308 269 -380 342 -131 133 -160 153 -192 135 -16 -8 -19 -37 -29 -228 -7
-120 -15 -230 -19 -246 -5 -18 -22 -36 -51 -53 l-43 -25 -103 62 c-127 77
-192 106 -275 123 -35 8 -66 16 -69 19 -3 3 5 15 18 26 28 27 121 56 227 71
96 14 138 38 166 95 17 35 20 70 26 265 10 324 17 389 45 417 19 19 35 23 91
25 37 1 84 1 105 0 20 -1 57 7 82 18 43 18 50 18 89 5 23 -8 65 -15 93 -15 53
0 166 33 182 53 17 22 42 191 33 223 -4 16 -6 81 -3 144 4 101 1 123 -18 175
-47 129 -47 118 -10 187 30 57 34 73 37 163 3 71 1 96 -6 85 -6 -8 -11 -29
-11 -46 0 -49 -27 -124 -58 -163 -16 -20 -34 -46 -40 -58 -20 -37 -14 -128 12
-191 43 -101 58 -180 59 -299 0 -62 -3 -116 -7 -120 -15 -16 -41 15 -41 49 0
25 -9 45 -34 73 -44 51 -77 124 -91 205 -37 217 -42 233 -80 273 -78 77 -89
26 -24 -108 18 -39 41 -106 50 -150 9 -44 29 -103 45 -131 43 -76 36 -114 -22
-114 -22 0 -29 7 -44 48 -27 72 -35 73 -35 4 0 -34 -4 -62 -8 -62 -16 0 -32
24 -32 47 0 13 -6 36 -14 51 -12 23 -12 37 0 92 7 36 14 76 14 90 0 51 -32
147 -74 220 -132 230 -135 234 -142 216 -19 -48 27 -196 93 -300 60 -93 78
-166 63 -258 -15 -99 -23 -109 -43 -56 -10 25 -31 55 -48 67 -16 12 -44 45
-60 72 -17 27 -35 49 -40 49 -5 0 -6 -27 -2 -61 5 -51 4 -61 -8 -57 -24 8 -57
80 -74 163 -9 44 -18 81 -20 83 -2 2 -6 -23 -10 -55 -12 -106 -14 -114 -51
-129 -21 -9 -36 -23 -40 -39 -3 -14 -13 -25 -21 -25 -17 0 -52 75 -53 113 0
37 -17 34 -61 -9 -44 -43 -62 -40 -83 11 -12 28 -20 36 -37 33 -38 -5 -46 -33
-21 -68 36 -49 15 -57 -32 -12 -22 22 -69 56 -102 76 -61 35 -95 69 -138 136
-26 41 -66 53 -66 20 0 -30 42 -109 98 -181 52 -68 77 -125 66 -153 -14 -36
-48 -12 -111 79 -77 109 -136 173 -169 181 -51 13 -43 -23 25 -104 68 -82 78
-101 86 -159 8 -61 4 -63 -64 -33 -24 11 -61 20 -83 20 -62 0 -78 13 -78 66 0
43 -4 49 -74 117 -72 71 -74 74 -91 152 -10 44 -22 97 -27 117 -5 23 -31 61
-68 102 -33 37 -60 67 -60 69 0 1 -4 16 -9 33 -14 49 -1 59 46 36 l39 -20 0
48 c0 35 9 65 31 108 29 54 31 63 21 100 -9 37 -6 51 31 147 23 59 58 140 77
181 l36 73 -18 51 c-19 53 -13 85 16 85 21 0 51 -49 57 -93 3 -23 9 -42 13
-42 11 0 37 33 44 57 4 13 27 35 52 49 47 28 84 84 84 127 0 30 23 62 38 53 7
-4 12 -33 12 -67 0 -60 8 -71 30 -45 10 13 13 49 20 211 l2 30 13 -30 c8 -16
19 -61 26 -98 18 -98 34 -71 34 56 0 120 -17 160 -79 191 -55 27 -90 8 -130
-70 -20 -38 -38 -60 -51 -62 -56 -8 -66 -15 -91 -60 -37 -65 -64 -92 -89 -92
-30 0 -46 -15 -114 -107 -34 -46 -64 -83 -67 -83 -13 0 7 84 41 171 19 49 39
124 44 167 15 116 43 187 112 279 42 57 39 63 -30 63 -54 0 -185 35 -258 70
-199 92 -347 259 -418 470 l-23 65 -58 2 c-33 1 -74 2 -92 2 -21 1 -42 10 -59
27 -44 44 -31 97 60 249 83 138 94 171 52 161 -18 -5 -31 0 -46 15 -18 18 -19
23 -7 40 7 11 37 30 67 42 70 28 81 45 56 90 -18 34 -18 35 4 65 28 40 102
105 156 136 24 14 85 39 136 56 73 23 102 39 134 69 31 31 51 42 90 48 35 6
51 14 53 26 15 76 -279 26 -515 -88 -81 -40 -249 -146 -325 -206 -16 -13 -33
-19 -43 -15 -28 10 -16 156 17 221 37 71 64 93 238 189 252 139 440 204 651
226 146 15 201 13 340 -12 165 -29 180 -29 195 1 7 13 10 30 7 37 -17 45 -196
98 -364 109 -116 8 -241 -4 -375 -36 -47 -11 -104 -19 -127 -17 -37 3 -42 6
-45 30 -3 22 8 40 49 83 28 30 72 68 98 84 92 59 308 111 461 111 136 0 180
-14 405 -125 156 -78 235 -111 309 -130 119 -30 149 -47 244 -139 81 -78 112
-124 92 -136 -15 -9 -28 -6 -162 36 -118 37 -169 45 -175 27 -6 -16 33 -40
122 -73 42 -16 107 -47 144 -69 73 -43 95 -75 89 -127 -3 -28 -4 -29 -55 -26
-47 2 -53 0 -53 -17 0 -26 25 -38 165 -85 122 -40 166 -63 190 -99 30 -46 -7
-73 -84 -61 -22 4 -41 2 -45 -4 -13 -22 25 -38 112 -50 49 -7 108 -19 131 -27
45 -16 47 -14 27 18 -8 12 -31 69 -51 127 -113 321 -290 572 -526 745 -84 62
-88 66 -108 130 -26 81 -60 136 -101 165 -17 12 -46 46 -64 75 -25 39 -44 56
-70 65 -20 6 -75 43 -123 81 -49 38 -105 74 -126 80 -22 6 -114 12 -205 14
-92 1 -205 6 -252 9 -47 3 -105 1 -129 -4z m435 -93 c4 -4 -2 -17 -14 -30 -12
-13 -27 -38 -33 -57 l-12 -33 -18 21 c-20 25 -59 30 -59 7 0 -15 10 -26 64
-69 20 -15 27 -28 23 -39 -7 -18 -38 -21 -117 -9 -42 7 -45 9 -50 41 -7 47
-30 53 -30 8 0 -34 -12 -47 -46 -47 -16 0 -19 36 -4 45 16 10 11 47 -14 98
l-23 47 26 13 c29 13 294 18 307 4z m-481 -29 c9 -18 46 -61 83 -95 73 -68 74
-76 6 -91 -51 -11 -73 -2 -50 21 15 14 13 18 -12 44 -15 15 -37 42 -49 58
l-22 30 -1 -27 c0 -15 12 -41 27 -58 20 -25 24 -36 16 -49 -20 -32 -50 -25
-83 21 -32 44 -57 64 -67 54 -3 -3 4 -17 16 -32 23 -29 27 -44 12 -44 -17 0
-101 94 -101 113 0 21 45 40 76 33 14 -4 24 -15 26 -28 2 -13 11 -24 21 -26
14 -3 17 3 15 29 -3 27 3 36 31 56 19 13 35 23 37 23 2 0 11 -15 19 -32z m613
-7 c4 -27 27 -38 47 -21 18 15 27 -2 23 -40 -4 -31 27 -40 37 -11 7 23 35 29
35 7 0 -7 -7 -31 -16 -51 -11 -27 -14 -52 -9 -87 7 -48 6 -50 -16 -46 -21 3
-24 8 -24 50 0 25 -4 50 -8 54 -11 12 -27 -16 -27 -48 0 -21 -5 -28 -19 -28
-35 0 -41 22 -20 69 28 64 25 83 -9 46 -15 -17 -34 -41 -44 -55 -13 -20 -19
-22 -29 -13 -9 10 -8 17 5 38 17 26 17 27 -6 23 -18 -2 -24 -10 -26 -35 -2
-18 -8 -33 -13 -33 -13 0 -39 62 -39 93 0 39 78 94 95 67 11 -18 25 -11 25 13
0 43 32 49 38 8z m-504 -33 c17 -24 21 -48 9 -48 -21 1 -56 39 -50 54 9 22 23
20 41 -6z m-384 -28 c10 -5 32 -32 49 -60 22 -36 44 -57 76 -72 25 -12 45 -25
45 -29 0 -8 -40 -22 -118 -39 -60 -14 -123 -7 -194 21 -50 19 -80 8 -33 -13
56 -25 7 -66 -120 -98 -43 -11 -97 -20 -121 -20 -61 0 -89 -14 -156 -75 -32
-30 -71 -58 -85 -61 -15 -4 -56 -1 -92 7 -36 7 -98 13 -138 12 -56 -2 -71 1
-67 11 9 24 54 36 134 36 44 0 80 3 80 7 0 3 -11 21 -25 39 -29 38 -31 50 -9
58 47 18 86 -5 112 -66 14 -35 57 -39 67 -8 5 15 -3 32 -30 61 -20 22 -34 46
-32 52 7 22 33 18 61 -8 35 -32 61 -34 51 -2 -18 58 -17 75 5 87 32 17 48 6
56 -37 9 -51 23 -78 35 -66 7 7 4 35 -6 79 -15 65 -15 69 2 82 57 41 88 -28
54 -117 -11 -30 -19 -57 -16 -59 7 -8 65 56 65 72 0 25 38 19 64 -9 28 -30 66
-34 66 -7 0 12 -14 25 -40 37 -52 24 -112 89 -108 118 2 18 10 22 37 22 30 0
38 -6 61 -45 30 -51 60 -65 60 -28 0 14 -14 38 -35 58 -19 18 -32 36 -30 40 8
13 85 21 104 10 10 -5 30 -29 45 -53 14 -25 42 -59 62 -77 33 -29 41 -31 78
-26 23 4 45 11 51 17 6 6 -17 33 -63 75 -40 36 -72 70 -72 75 0 12 47 12 70
-1z m1100 -69 c0 -20 -36 -71 -51 -71 -10 0 -13 73 -2 83 3 4 17 7 30 7 16 0
23 -6 23 -19z m49 -93 c-7 -29 -16 -57 -19 -61 -12 -15 -40 5 -40 29 0 22 58
100 67 90 3 -3 -1 -29 -8 -58z m75 -40 c18 -67 -2 -99 -38 -59 -16 18 -14 42
7 69 14 18 24 15 31 -10z m-2123 -278 c80 -25 102 -41 97 -72 -5 -34 -38 -34
-93 1 -25 16 -65 32 -88 36 -71 11 -79 15 -67 30 11 13 34 21 71 24 9 0 45 -8
80 -19z m-88 -103 c64 -28 38 -41 -71 -34 -103 6 -130 18 -97 43 25 19 114 14
168 -9z m7 -106 c0 -14 -50 -47 -93 -60 -45 -15 -108 -6 -139 19 -29 23 -23
25 97 38 129 13 135 13 135 3z m-700 -1691 c55 -28 97 -67 126 -116 33 -56 67
-144 55 -144 -4 0 -40 36 -80 80 -55 61 -87 87 -139 112 -63 31 -73 33 -161
31 -79 -2 -92 0 -80 12 8 7 43 23 79 34 75 24 141 21 200 -9z m-222 -136 c30
-21 29 -92 -3 -209 -14 -49 -28 -123 -31 -165 -7 -91 13 -157 75 -251 44 -66
49 -79 27 -79 -22 0 -90 81 -131 156 -20 38 -53 94 -71 126 -32 53 -34 61 -34
147 0 78 5 103 30 169 16 42 37 87 45 100 19 26 60 29 93 6z m239 -111 c28
-70 113 -237 128 -253 23 -26 18 -37 -29 -65 -50 -29 -71 -51 -80 -82 -6 -18
3 -34 44 -77 40 -43 68 -61 121 -81 66 -26 109 -61 109 -91 0 -19 -46 -47 -62
-38 -32 19 -241 222 -254 246 -8 15 -14 54 -14 86 0 47 5 67 25 96 31 45 31
57 4 82 -28 24 -58 91 -59 127 0 32 26 87 41 87 5 0 17 -17 26 -37z m384 -293
c52 -14 86 -53 98 -111 6 -28 18 -63 26 -79 18 -35 19 -81 3 -102 -19 -24 -80
-58 -104 -58 -27 0 -69 44 -58 62 4 7 23 32 41 56 25 33 33 53 33 86 0 46 -14
64 -83 105 -38 23 -57 48 -57 75 0 13 5 13 33 -4 17 -11 48 -25 68 -30z m430
-42 c22 -44 29 -67 24 -89 -4 -16 -11 -29 -16 -29 -16 0 -37 44 -43 92 -3 27
-9 60 -12 74 -11 44 13 19 47 -48z m503 -236 c9 -16 10 -108 0 -123 -9 -16
-63 39 -72 74 -8 33 2 210 14 229 5 8 16 -23 29 -77 11 -50 24 -96 29 -103z
m-294 113 c25 -78 72 -171 134 -265 67 -99 96 -168 96 -223 l-1 -32 -13 36
c-22 61 -57 110 -142 199 -44 47 -89 101 -99 119 -23 45 -31 138 -15 185 14
43 22 39 40 -19z m538 -102 c34 -93 52 -189 51 -266 -1 -110 -12 -121 -32 -32
-10 42 -34 113 -54 157 -28 64 -33 88 -28 117 6 32 29 81 39 81 2 0 13 -26 24
-57z m-941 -143 c18 -36 16 -80 -6 -117 -22 -35 -101 -86 -127 -81 -26 5 -28
25 -3 45 54 44 59 53 59 100 0 76 49 109 77 53z m250 -107 c29 -62 43 -106 43
-134 l0 -41 -32 19 c-56 32 -71 72 -75 192 -3 86 -1 101 8 81 7 -14 32 -67 56
-117z m913 95 c32 -70 26 -128 -22 -232 -42 -88 -43 -94 -43 -190 l0 -98 -19
43 c-35 78 -33 165 8 319 20 74 36 147 36 161 0 23 7 39 17 39 2 0 13 -19 23
-42z m-334 -149 c15 -22 34 -68 41 -102 13 -65 18 -269 6 -281 -4 -3 -14 31
-24 76 -9 46 -33 124 -53 175 -19 50 -39 117 -42 149 l-7 56 25 -16 c14 -9 38
-35 54 -57z m-331 -194 c13 -32 14 -47 5 -70 l-11 -30 -18 24 c-10 14 -21 45
-24 70 -3 25 -9 62 -13 81 l-6 35 26 -34 c14 -19 33 -53 41 -76z m760 -32 c-3
-21 -13 -57 -21 -81 -8 -23 -14 -73 -15 -110 l-1 -67 -14 34 c-35 80 -30 181
12 231 35 41 48 39 39 -7z m-576 -131 c10 -21 21 -71 25 -117 3 -44 8 -93 12
-110 l6 -30 -22 25 c-12 14 -37 58 -57 99 -37 77 -41 132 -13 166 16 19 26 12
49 -33z m228 -277 c19 -38 47 -86 62 -105 33 -42 85 -140 77 -147 -11 -11 -74
19 -104 50 -40 41 -81 158 -87 252 -5 58 -4 66 6 45 7 -14 27 -56 46 -95z
m206 56 c39 -25 57 -54 73 -114 15 -56 19 -187 6 -187 -5 0 -14 22 -21 49 -7
27 -32 82 -56 122 -47 80 -67 149 -44 149 8 0 27 -8 42 -19z m253 -357 c9 -13
38 -37 63 -51 25 -15 54 -33 63 -41 26 -22 40 -74 29 -106 l-11 -26 -79 76
c-89 85 -111 122 -111 186 0 57 13 70 22 24 4 -20 15 -48 24 -62z m634 -709
c49 -25 96 -55 105 -68 13 -21 11 -40 -20 -212 -70 -383 -82 -416 -162 -431
-47 -9 -159 4 -194 22 -50 25 -58 49 -69 204 -6 80 -17 217 -26 305 -8 88 -16
171 -17 185 -2 24 1 25 63 31 36 3 102 6 148 7 79 2 86 0 172 -43z"/>
<path d="M3503 5100 c-225 -59 -405 -240 -463 -466 -24 -94 -26 -232 -4 -324
69 -294 340 -501 653 -499 125 0 206 22 309 84 76 45 202 156 202 177 0 12 44
10 58 -4 27 -27 12 -58 -63 -135 -143 -146 -168 -282 -58 -324 54 -20 75 -12
139 58 56 59 65 66 85 57 14 -7 27 -25 34 -50 10 -37 13 -39 68 -50 32 -7 76
-24 97 -38 22 -14 44 -26 49 -26 5 0 29 16 52 36 24 20 71 49 105 65 80 38
136 92 132 128 -2 21 -15 32 -65 56 -113 54 -131 91 -78 155 19 23 35 48 35
55 0 7 -13 28 -30 46 -16 19 -39 63 -51 99 -39 115 -113 283 -168 375 -29 50
-66 128 -82 175 l-28 85 25 3 c51 7 144 -78 144 -130 0 -14 15 -48 33 -74 19
-27 50 -72 69 -101 20 -28 48 -85 63 -125 42 -109 69 -159 120 -219 51 -60 87
-130 106 -204 15 -58 -1 -177 -32 -236 -10 -20 -23 -68 -29 -105 -17 -108 -30
-131 -89 -146 -9 -3 1 -13 25 -28 80 -48 112 -89 194 -255 72 -143 84 -175
112 -303 l32 -143 22 97 c26 112 51 278 63 419 7 74 5 137 -6 240 -8 77 -18
143 -22 147 -3 4 -33 3 -66 -1 -33 -5 -64 -6 -69 -3 -5 3 19 18 54 33 183 84
301 224 351 417 36 142 16 303 -53 435 -48 91 -163 203 -264 255 -147 76 -300
87 -466 35 l-78 -24 -31 35 c-68 77 -146 103 -249 81 -141 -31 -217 -16 -324
60 -73 52 -149 87 -234 110 -83 21 -238 19 -329 -5z m302 -105 c95 -25 181
-70 241 -127 57 -53 114 -139 114 -170 0 -9 -16 -31 -35 -49 -42 -40 -43 -54
-10 -85 27 -25 33 -70 13 -107 -19 -36 -234 -246 -263 -257 -14 -5 -57 -10
-94 -10 -98 0 -102 -5 -110 -134 -4 -78 -10 -110 -21 -117 -28 -18 -122 0
-205 41 -107 52 -191 135 -245 243 -39 78 -49 117 -30 117 5 0 32 -20 59 -45
74 -65 110 -73 245 -53 123 18 257 57 264 76 3 9 -14 12 -62 12 -111 0 -284
29 -338 56 -49 25 -62 49 -30 58 88 26 215 39 402 40 173 1 211 4 245 19 64
29 74 68 10 41 -36 -15 -114 -18 -177 -8 l-37 6 14 29 c17 32 20 115 5 155 -6
15 -9 28 -7 31 2 2 24 -15 48 -37 24 -22 66 -47 94 -56 28 -10 56 -19 63 -22
25 -9 10 21 -67 136 -84 126 -99 140 -176 167 -132 44 -279 0 -445 -134 l-44
-36 28 38 c60 79 174 151 286 181 73 19 192 20 265 1z m-352 -257 c-16 -47
-11 -118 12 -162 13 -25 13 -26 -10 -26 -79 0 -195 56 -195 94 0 8 19 26 43
42 64 43 150 94 158 94 4 0 0 -19 -8 -42z m1672 2 c80 -27 144 -71 209 -140
188 -204 173 -517 -34 -703 -52 -46 -117 -86 -169 -102 -17 -5 -3 13 47 64 48
49 76 87 88 119 9 26 34 90 54 143 48 122 64 197 55 264 -17 140 -148 299
-294 356 -63 25 -28 24 44 -1z m-128 -121 c66 -29 102 -52 123 -77 31 -38 67
-150 56 -178 -5 -14 -14 -9 -54 28 -26 24 -69 54 -95 67 -43 21 -59 23 -138
19 -84 -5 -89 -4 -94 16 -4 11 -13 38 -22 59 -16 36 -15 38 7 62 23 25 65 42
104 44 10 1 61 -18 113 -40z m134 -388 c23 -62 22 -109 -3 -124 -12 -8 -27 -5
-61 13 l-45 24 24 29 c13 16 27 39 30 53 7 26 1 88 -10 119 -4 11 4 2 18 -20
15 -22 35 -64 47 -94z"/>
<path d="M4431 3551 c-11 -7 -4 -20 30 -61 40 -47 44 -57 44 -104 0 -28 -4
-67 -8 -86 l-8 -35 20 25 c25 31 51 103 51 142 0 39 -24 94 -47 106 -31 16
-68 22 -82 13z"/>
<path d="M4236 3543 c-3 -4 17 -31 46 -60 l53 -54 0 -79 c-1 -44 1 -80 3 -80
2 0 12 21 24 47 38 86 23 190 -33 218 -29 16 -81 20 -93 8z"/>
<path d="M4057 3524 c-3 -4 14 -30 39 -58 45 -52 84 -146 84 -206 0 -57 19
-39 25 24 12 112 -12 198 -64 229 -29 17 -72 23 -84 11z"/>
<path d="M4648 3452 c8 -110 -26 -208 -88 -253 -15 -11 -87 -31 -177 -49 -158
-31 -383 -100 -468 -143 -130 -66 -232 -168 -292 -293 -34 -71 -58 -191 -36
-183 6 2 33 32 62 66 65 79 147 148 281 236 145 94 276 157 468 221 95 32 178
66 199 82 21 16 46 50 61 83 22 48 26 69 25 141 -2 89 -12 141 -29 147 -7 2
-9 -18 -6 -55z"/>
<path d="M4757 3428 c14 -76 7 -199 -15 -265 -11 -35 -17 -63 -13 -63 15 0 71
108 86 165 22 85 2 170 -45 195 -19 10 -20 9 -13 -32z"/>
<path d="M4251 3346 c0 -30 6 -62 14 -73 13 -17 14 -16 20 8 7 28 -10 104 -25
114 -5 3 -9 -19 -9 -49z"/>
<path d="M4426 3380 c-3 -14 -12 -42 -18 -63 -8 -27 -8 -41 -1 -48 28 -28 50
38 35 101 -8 34 -9 34 -16 10z"/>
<path d="M4905 3237 c-1 -94 -4 -120 -22 -159 -12 -27 -20 -48 -17 -48 22 0
89 117 99 172 8 44 -8 98 -38 126 l-22 21 0 -112z"/>
<path d="M4100 3278 c0 -43 5 -69 13 -77 28 -23 36 28 16 90 -20 59 -29 56
-29 -13z"/>
<path d="M4827 3155 c-9 -20 -17 -48 -17 -63 1 -25 2 -26 15 -9 14 19 31 95
23 103 -3 2 -12 -12 -21 -31z"/>
<path d="M4993 3138 c19 -109 19 -126 -2 -169 -11 -24 -28 -54 -37 -66 -24
-34 0 -28 42 9 43 38 64 82 64 133 0 42 -32 110 -56 119 -14 5 -15 1 -11 -26z"/>
<path d="M4927 3039 c-9 -17 -17 -40 -17 -51 0 -33 28 -3 36 38 8 46 3 50 -19
13z"/>
<path d="M5072 2918 c9 -67 -7 -133 -38 -158 -25 -22 -15 -31 16 -15 67 34 91
135 50 203 -11 17 -24 32 -28 32 -5 0 -5 -28 0 -62z"/>
<path d="M4372 2945 c-35 -7 -87 -25 -115 -38 -55 -25 -145 -102 -134 -114 4
-3 17 3 30 15 39 36 132 73 209 81 88 9 218 -1 273 -22 156 -60 268 -98 272
-93 3 3 2 18 -2 33 -11 44 -86 110 -147 128 -75 23 -304 29 -386 10z"/>
<path d="M5007 2874 c-10 -13 -17 -34 -15 -46 3 -21 4 -21 21 -4 9 10 17 31
17 47 0 35 0 35 -23 3z"/>
<path d="M4266 2759 c-31 -36 -34 -83 -10 -153 16 -46 97 -146 109 -134 3 3
-4 26 -16 53 -16 36 -22 70 -23 144 -2 129 -13 146 -60 90z"/>
<path d="M3968 2766 c-20 -15 -38 -57 -38 -89 0 -45 56 -142 110 -190 72 -65
89 -65 45 1 -31 47 -55 115 -55 156 0 33 -27 123 -39 130 -3 2 -14 -1 -23 -8z"/>
<path d="M4597 2742 c-10 -10 -17 -28 -17 -40 0 -25 49 -142 60 -142 4 0 12
33 17 73 9 60 8 76 -5 100 -19 32 -33 34 -55 9z"/>
<path d="M5088 2718 c-45 -43 -49 -68 -13 -68 31 0 65 33 65 63 0 41 -14 43
-52 5z"/>
<path d="M4101 2677 c-1 -80 26 -170 70 -234 17 -24 65 -69 107 -100 42 -31
112 -83 155 -114 42 -32 77 -54 77 -48 0 53 -94 163 -179 211 -116 64 -175
143 -211 282 l-19 71 0 -68z"/>
<path d="M4427 2681 c-32 -79 -20 -123 57 -210 47 -53 63 -103 51 -163 -6 -31
-5 -32 10 -13 22 28 38 93 31 129 -3 17 -21 63 -40 101 -19 39 -41 91 -50 116
-9 25 -22 54 -30 64 -12 16 -14 14 -29 -24z"/>
<path d="M4740 2618 c0 -62 -7 -82 -61 -178 -31 -56 -21 -140 16 -140 8 0 37
21 64 48 47 45 49 50 56 116 5 45 3 82 -5 110 -14 47 -47 106 -61 106 -5 0 -9
-28 -9 -62z"/>
<path d="M4884 2651 c18 -105 18 -202 1 -285 -17 -80 -17 -88 -1 -129 9 -25
27 -49 45 -60 l28 -17 7 63 c3 34 9 87 12 117 9 85 -38 272 -82 326 -15 18
-15 17 -10 -15z"/>
<path d="M5136 2598 c-3 -13 -6 -63 -6 -113 -1 -61 -7 -107 -20 -145 -10 -30
-17 -56 -16 -58 2 -1 17 13 34 32 65 75 95 221 55 274 -26 35 -39 37 -47 10z"/>
<path d="M3783 2594 c-15 -39 24 -202 62 -260 16 -25 83 -64 110 -64 8 0 15 7
15 15 0 23 -45 103 -90 160 -22 28 -50 76 -62 108 -11 31 -22 57 -25 57 -2 0
-6 -7 -10 -16z"/>
<path d="M3635 2480 c-21 -41 -19 -73 10 -129 22 -44 82 -108 92 -98 2 3 -5
20 -17 39 -11 19 -24 68 -30 109 -14 116 -27 134 -55 79z"/>
<path d="M5261 2475 c-1 -49 -22 -129 -45 -173 -24 -47 -33 -132 -14 -132 17
0 60 44 78 80 19 37 18 187 -2 230 l-16 35 -1 -40z"/>
<path d="M5024 2466 c-8 -33 15 -141 27 -129 6 6 16 33 23 61 12 43 12 54 -1
71 -19 28 -41 26 -49 -3z"/>
<path d="M4000 2441 c0 -58 95 -202 148 -224 55 -24 80 -29 86 -19 9 15 -48
87 -88 111 -36 23 -126 116 -126 132 0 5 -4 9 -10 9 -5 0 -10 -4 -10 -9z"/>
<path d="M3524 2297 c-26 -54 -12 -99 49 -165 47 -50 131 -102 166 -102 8 0
-9 24 -37 54 -28 30 -59 72 -68 93 -33 79 -57 122 -75 139 -17 16 -19 15 -35
-19z"/>
<path d="M3784 2258 c3 -17 19 -52 35 -77 17 -25 39 -67 50 -93 11 -27 23 -48
27 -48 8 0 -4 83 -22 147 -21 76 -104 142 -90 71z"/>
<path d="M5020 2196 c0 -50 19 -95 66 -159 31 -41 45 -71 49 -105 4 -26 15
-74 26 -106 10 -33 19 -68 19 -79 0 -10 5 -15 10 -12 16 10 12 107 -6 140 -9
17 -18 53 -20 82 -4 76 -102 273 -135 273 -5 0 -9 -15 -9 -34z"/>
<path d="M4560 2171 c0 -15 17 -65 39 -111 37 -79 38 -81 45 -50 12 63 -13
163 -45 180 -29 16 -39 12 -39 -19z"/>
<path d="M3744 2158 c6 -51 27 -92 49 -96 25 -5 22 31 -6 65 -13 15 -29 37
-36 48 -11 18 -12 15 -7 -17z"/>
<path d="M4030 2148 c-39 -86 -15 -176 65 -246 33 -29 131 -69 142 -58 3 3 -7
20 -22 38 -43 50 -65 107 -65 167 0 73 -43 141 -90 141 -6 0 -20 -19 -30 -42z"/>
<path d="M4260 2164 c1 -29 34 -97 60 -119 30 -27 58 -84 66 -135 l7 -43 15
28 c32 62 -8 223 -64 260 -13 8 -38 18 -54 22 -25 4 -30 2 -30 -13z"/>
<path d="M4507 1959 c-8 -155 0 -194 32 -155 33 40 30 137 -8 232 l-18 47 -6
-124z"/>
<path d="M4711 2027 c-1 -26 6 -80 15 -120 14 -61 23 -78 58 -112 l41 -40 3
33 c2 23 -11 62 -46 135 -27 56 -54 113 -60 127 -10 22 -11 20 -11 -23z"/>
<path d="M3592 2017 c-18 -22 -25 -69 -13 -99 23 -60 127 -148 176 -148 12 0
8 7 -13 25 -27 23 -67 92 -92 160 -6 17 -19 40 -28 53 -16 20 -20 21 -30 9z"/>
<path d="M4260 2009 c0 -54 32 -109 64 -109 15 0 4 41 -17 67 -13 15 -29 37
-35 48 -11 19 -11 18 -12 -6z"/>
</g>
</svg>
